<?xml version="1.0" encoding="UTF-8"?>
<svg width="20px" height="20px" viewBox="0 0 20 20" version="1.1" xmlns="http://www.w3.org/2000/svg" xmlns:xlink="http://www.w3.org/1999/xlink">
    <!-- Generator: Sketch 56.1 (81669) - https://sketch.com -->
    <title>iconfinder_039_015_frankenstein_monster_doctor_halloween_3792019</title>
    <desc>Created with Sketch.</desc>
    <g id="Page-1" stroke="none" stroke-width="1" fill="none" fill-rule="evenodd">
        <g id="iconfinder_039_015_frankenstein_monster_doctor_halloween_3792019" fill="#1E0E62" fill-rule="nonzero">
            <path d="M14.5,13 L4,13 L4,16.09515 C4,16.7383099 4.30932854,17.3422202 4.83124,17.71807 L7.47644,19.623 C7.81685315,19.8681195 8.22571856,20 8.6452,20 L11.3548,20 C11.7742814,20 12.1831469,19.8681195 12.52356,19.623 L15.16876,17.71809 C15.6906772,17.3422361 16,16.7383169 16,16.09515 L16,13 L14.5,13 Z M11,17 L9,17 C8.44771525,17 8,16.5522847 8,16 C8,15.4477153 8.44771525,15 9,15 L11,15 C11.5522847,15 12,15.4477153 12,16 C12,16.5522847 11.5522847,17 11,17 Z" id="Shape"></path>
            <rect id="Rectangle" x="0" y="8" width="4" height="3" rx="1"></rect>
            <rect id="Rectangle" x="16" y="8" width="4" height="3" rx="1"></rect>
            <path d="M14,0 L6,0 C3.790861,0 2,1.790861 2,4 L2,12 C2,13.6568542 3.34314575,15 5,15 L15,15 C16.6568542,15 18,13.6568542 18,12 L18,4 C18,1.790861 16.209139,0 14,0 Z M4,4 L5,4 L5,3 L6,3 L6,4 L8,4 L8,3 L9,3 L9,4 L11,4 L11,3 L12,3 L12,4 L13,4 L13,5 L12,5 L12,6 L11,6 L11,5 L9,5 L9,6 L8,6 L8,5 L6,5 L6,6 L5,6 L5,5 L4,5 L4,4 Z M7,11.5 C5.61928813,11.5 4.5,10.3807119 4.5,9 L9.5,9 C9.5,9.66304122 9.2366079,10.298926 8.76776695,10.767767 C8.29892601,11.2366079 7.66304122,11.5 7,11.5 Z M13,11.5 C11.6192881,11.5 10.5,10.3807119 10.5,9 L15.5,9 C15.5,10.3807119 14.3807119,11.5 13,11.5 Z" id="Shape"></path>
            <circle id="Oval" cx="13" cy="9" r="1"></circle>
            <circle id="Oval" cx="7" cy="9" r="1"></circle>
        </g>
    </g>
</svg>