<?xml version="1.0" ?><svg data-name="Layer 1" height="24" id="Layer_1" viewBox="0 0 24 24" width="24" xmlns="http://www.w3.org/2000/svg"><title/><path d="M16.5,15H6v3.09515a2,2,0,0,0,.83124,1.62292L9.47644,21.623A2.0001,2.0001,0,0,0,10.6452,22H13.3548a2.0001,2.0001,0,0,0,1.16876-.377l2.6452-1.90491A2,2,0,0,0,18,18.09515V15ZM13,19H11a1,1,0,0,1,0-2h2a1,1,0,0,1,0,2Z"/><rect height="3" rx="1" ry="1" width="4" x="2" y="10"/><rect height="3" rx="1" ry="1" width="4" x="18" y="10"/><path d="M16,2H8A4,4,0,0,0,4,6v8a3,3,0,0,0,3,3H17a3,3,0,0,0,3-3V6A4,4,0,0,0,16,2ZM6,6H7V5H8V6h2V5h1V6h2V5h1V6h1V7H14V8H13V7H11V8H10V7H8V8H7V7H6Zm3,7.5A2.5,2.5,0,0,1,6.5,11h5A2.5,2.5,0,0,1,9,13.5Zm6,0A2.5,2.5,0,0,1,12.5,11h5A2.5,2.5,0,0,1,15,13.5Z"/><circle cx="15" cy="11" r="0.75"/><circle cx="9" cy="11" r="0.75"/></svg>